<mxfile host="app.diagrams.net" agent="Mozilla/5.0 (Macintosh; Intel Mac OS X 10_15_7) AppleWebKit/605.1.15 (KHTML, like Gecko) Version/26.0 Safari/605.1.15" version="28.2.5">
  <diagram name="Страница — 1" id="AWImiVKS8cElqT_JNKbd">
    <mxGraphModel dx="788" dy="442" grid="1" gridSize="10" guides="1" tooltips="1" connect="1" arrows="1" fold="1" page="1" pageScale="1" pageWidth="827" pageHeight="1169" math="0" shadow="0">
      <root>
        <mxCell id="0" />
        <mxCell id="1" parent="0" />
        <mxCell id="VTjfexAmIyrsBulpZj1l-5" value="Student" style="swimlane;fontStyle=1;align=center;verticalAlign=top;childLayout=stackLayout;horizontal=1;startSize=26;horizontalStack=0;resizeParent=1;resizeParentMax=0;resizeLast=0;collapsible=1;marginBottom=0;whiteSpace=wrap;html=1;" parent="1" vertex="1">
          <mxGeometry x="40" y="80" width="160" height="290" as="geometry" />
        </mxCell>
        <mxCell id="VTjfexAmIyrsBulpZj1l-6" value="- studentId : int&lt;div&gt;- name : string&lt;/div&gt;&lt;div&gt;- surname : string&lt;/div&gt;&lt;div&gt;- age : int&lt;/div&gt;&lt;div&gt;- gender : bool&lt;/div&gt;" style="text;strokeColor=none;fillColor=none;align=left;verticalAlign=top;spacingLeft=4;spacingRight=4;overflow=hidden;rotatable=0;points=[[0,0.5],[1,0.5]];portConstraint=eastwest;whiteSpace=wrap;html=1;" parent="VTjfexAmIyrsBulpZj1l-5" vertex="1">
          <mxGeometry y="26" width="160" height="84" as="geometry" />
        </mxCell>
        <mxCell id="VTjfexAmIyrsBulpZj1l-7" value="" style="line;strokeWidth=1;fillColor=none;align=left;verticalAlign=middle;spacingTop=-1;spacingLeft=3;spacingRight=3;rotatable=0;labelPosition=right;points=[];portConstraint=eastwest;strokeColor=inherit;" parent="VTjfexAmIyrsBulpZj1l-5" vertex="1">
          <mxGeometry y="110" width="160" height="8" as="geometry" />
        </mxCell>
        <mxCell id="VTjfexAmIyrsBulpZj1l-8" value="+ Student()&lt;div&gt;+ Student(is: istream)&lt;/div&gt;&lt;div&gt;+ writeToConsole()&lt;/div&gt;&lt;div&gt;+ set_currentID(ID : int)&lt;/div&gt;&lt;div&gt;+ get_id()&lt;/div&gt;&lt;div&gt;+ get_age()&lt;br&gt;&lt;/div&gt;&lt;div&gt;+ get_name()&lt;br&gt;&lt;/div&gt;&lt;div&gt;+ get_surname()&lt;br&gt;&lt;/div&gt;&lt;div&gt;+ get_gender()&lt;/div&gt;&lt;div&gt;+print_gender()&lt;/div&gt;&lt;div&gt;+serialize()&lt;/div&gt;" style="text;strokeColor=none;fillColor=none;align=left;verticalAlign=top;spacingLeft=4;spacingRight=4;overflow=hidden;rotatable=0;points=[[0,0.5],[1,0.5]];portConstraint=eastwest;whiteSpace=wrap;html=1;" parent="VTjfexAmIyrsBulpZj1l-5" vertex="1">
          <mxGeometry y="118" width="160" height="172" as="geometry" />
        </mxCell>
        <mxCell id="VTjfexAmIyrsBulpZj1l-26" value="" style="endArrow=none;html=1;edgeStyle=orthogonalEdgeStyle;rounded=0;fontSize=12;startSize=8;endSize=8;curved=1;entryX=0.5;entryY=0;entryDx=0;entryDy=0;exitX=0.666;exitY=1.014;exitDx=0;exitDy=0;exitPerimeter=0;" parent="VTjfexAmIyrsBulpZj1l-5" source="VTjfexAmIyrsBulpZj1l-8" edge="1">
          <mxGeometry relative="1" as="geometry">
            <mxPoint x="110" y="300" as="sourcePoint" />
            <mxPoint x="70.00000000000011" y="490.0000000000001" as="targetPoint" />
            <Array as="points">
              <mxPoint x="110" y="353" />
              <mxPoint x="110" y="350" />
              <mxPoint x="120" y="350" />
              <mxPoint x="120" y="400" />
              <mxPoint x="60" y="400" />
              <mxPoint x="60" y="440" />
              <mxPoint x="70" y="440" />
            </Array>
          </mxGeometry>
        </mxCell>
        <mxCell id="VTjfexAmIyrsBulpZj1l-27" value="parent" style="edgeLabel;resizable=0;html=1;align=left;verticalAlign=bottom;" parent="VTjfexAmIyrsBulpZj1l-26" connectable="0" vertex="1">
          <mxGeometry x="-1" relative="1" as="geometry">
            <mxPoint y="-13" as="offset" />
          </mxGeometry>
        </mxCell>
        <mxCell id="VTjfexAmIyrsBulpZj1l-28" value="child" style="edgeLabel;resizable=0;html=1;align=right;verticalAlign=bottom;" parent="VTjfexAmIyrsBulpZj1l-26" connectable="0" vertex="1">
          <mxGeometry x="1" relative="1" as="geometry" />
        </mxCell>
        <mxCell id="VTjfexAmIyrsBulpZj1l-13" value="GroupLeader" style="swimlane;fontStyle=1;align=center;verticalAlign=top;childLayout=stackLayout;horizontal=1;startSize=26;horizontalStack=0;resizeParent=1;resizeParentMax=0;resizeLast=0;collapsible=1;marginBottom=0;whiteSpace=wrap;html=1;" parent="1" vertex="1">
          <mxGeometry x="20" y="570" width="160" height="170" as="geometry" />
        </mxCell>
        <mxCell id="VTjfexAmIyrsBulpZj1l-14" value="- email : string&lt;div&gt;- phoneNumber : string&lt;/div&gt;" style="text;strokeColor=none;fillColor=none;align=left;verticalAlign=top;spacingLeft=4;spacingRight=4;overflow=hidden;rotatable=0;points=[[0,0.5],[1,0.5]];portConstraint=eastwest;whiteSpace=wrap;html=1;" parent="VTjfexAmIyrsBulpZj1l-13" vertex="1">
          <mxGeometry y="26" width="160" height="44" as="geometry" />
        </mxCell>
        <mxCell id="VTjfexAmIyrsBulpZj1l-15" value="" style="line;strokeWidth=1;fillColor=none;align=left;verticalAlign=middle;spacingTop=-1;spacingLeft=3;spacingRight=3;rotatable=0;labelPosition=right;points=[];portConstraint=eastwest;strokeColor=inherit;" parent="VTjfexAmIyrsBulpZj1l-13" vertex="1">
          <mxGeometry y="70" width="160" height="8" as="geometry" />
        </mxCell>
        <mxCell id="VTjfexAmIyrsBulpZj1l-16" value="+ GroupLeader()&lt;div&gt;+ GroupLeader(is: istream)&lt;div&gt;+ writeToConsole()&lt;/div&gt;&lt;div&gt;&lt;span style=&quot;background-color: transparent; color: light-dark(rgb(0, 0, 0), rgb(255, 255, 255));&quot;&gt;+serialize()&lt;/span&gt;&lt;/div&gt;&lt;/div&gt;" style="text;strokeColor=none;fillColor=none;align=left;verticalAlign=top;spacingLeft=4;spacingRight=4;overflow=hidden;rotatable=0;points=[[0,0.5],[1,0.5]];portConstraint=eastwest;whiteSpace=wrap;html=1;" parent="VTjfexAmIyrsBulpZj1l-13" vertex="1">
          <mxGeometry y="78" width="160" height="92" as="geometry" />
        </mxCell>
        <mxCell id="VTjfexAmIyrsBulpZj1l-18" value="Group" style="swimlane;fontStyle=1;align=center;verticalAlign=top;childLayout=stackLayout;horizontal=1;startSize=26;horizontalStack=0;resizeParent=1;resizeParentMax=0;resizeLast=0;collapsible=1;marginBottom=0;whiteSpace=wrap;html=1;" parent="1" vertex="1">
          <mxGeometry x="430" y="110" width="160" height="310" as="geometry" />
        </mxCell>
        <mxCell id="VTjfexAmIyrsBulpZj1l-19" value="- title : string&lt;div&gt;- students : vector&amp;lt;shared_ptr&amp;lt;Student&amp;gt;&amp;gt;&lt;/div&gt;" style="text;strokeColor=none;fillColor=none;align=left;verticalAlign=top;spacingLeft=4;spacingRight=4;overflow=hidden;rotatable=0;points=[[0,0.5],[1,0.5]];portConstraint=eastwest;whiteSpace=wrap;html=1;" parent="VTjfexAmIyrsBulpZj1l-18" vertex="1">
          <mxGeometry y="26" width="160" height="64" as="geometry" />
        </mxCell>
        <mxCell id="VTjfexAmIyrsBulpZj1l-20" value="" style="line;strokeWidth=1;fillColor=none;align=left;verticalAlign=middle;spacingTop=-1;spacingLeft=3;spacingRight=3;rotatable=0;labelPosition=right;points=[];portConstraint=eastwest;strokeColor=inherit;" parent="VTjfexAmIyrsBulpZj1l-18" vertex="1">
          <mxGeometry y="90" width="160" height="8" as="geometry" />
        </mxCell>
        <mxCell id="VTjfexAmIyrsBulpZj1l-21" value="+ Group(title: string)&lt;div&gt;+ ~Group()&lt;br&gt;&lt;div&gt;+ addStudent()&lt;/div&gt;&lt;div&gt;+ showAllStudents()&lt;/div&gt;&lt;div&gt;+ loadStudents()&lt;/div&gt;&lt;div&gt;+saveStudents(file:ofstream)&lt;/div&gt;&lt;div&gt;+ deleteAllStudents()&lt;/div&gt;&lt;div&gt;+ set_current_studentID()&lt;/div&gt;&lt;div&gt;+ get_title()&lt;/div&gt;&lt;/div&gt;" style="text;strokeColor=none;fillColor=none;align=left;verticalAlign=top;spacingLeft=4;spacingRight=4;overflow=hidden;rotatable=0;points=[[0,0.5],[1,0.5]];portConstraint=eastwest;whiteSpace=wrap;html=1;" parent="VTjfexAmIyrsBulpZj1l-18" vertex="1">
          <mxGeometry y="98" width="160" height="212" as="geometry" />
        </mxCell>
        <mxCell id="VTjfexAmIyrsBulpZj1l-29" value="" style="endArrow=open;html=1;endSize=12;startArrow=diamondThin;startSize=14;startFill=1;edgeStyle=orthogonalEdgeStyle;align=left;verticalAlign=bottom;rounded=0;fontSize=12;curved=1;" parent="1" edge="1">
          <mxGeometry x="-1" y="3" relative="1" as="geometry">
            <mxPoint x="430" y="314" as="sourcePoint" />
            <mxPoint x="200" y="270" as="targetPoint" />
            <mxPoint as="offset" />
          </mxGeometry>
        </mxCell>
      </root>
    </mxGraphModel>
  </diagram>
</mxfile>
